<mxfile host="app.diagrams.net" modified="2024-03-19T06:48:40.562Z" agent="Mozilla/5.0 (Windows NT 10.0; Win64; x64) AppleWebKit/537.36 (KHTML, like Gecko) Chrome/122.0.0.0 Safari/537.36 Edg/122.0.0.0" etag="zpxHVSnpbFWpJZivviuG" version="24.0.7" type="github">
  <diagram id="C5RBs43oDa-KdzZeNtuy" name="Page-1">
    <mxGraphModel dx="1378" dy="1046" grid="1" gridSize="10" guides="1" tooltips="1" connect="1" arrows="1" fold="1" page="1" pageScale="1" pageWidth="1169" pageHeight="1654" math="0" shadow="0">
      <root>
        <mxCell id="WIyWlLk6GJQsqaUBKTNV-0" />
        <mxCell id="WIyWlLk6GJQsqaUBKTNV-1" parent="WIyWlLk6GJQsqaUBKTNV-0" />
        <mxCell id="WIyWlLk6GJQsqaUBKTNV-2" value="" style="rounded=0;html=1;jettySize=auto;orthogonalLoop=1;fontSize=11;endArrow=block;endFill=0;endSize=8;strokeWidth=1;shadow=0;labelBackgroundColor=none;edgeStyle=orthogonalEdgeStyle;curved=1;" parent="WIyWlLk6GJQsqaUBKTNV-1" source="WIyWlLk6GJQsqaUBKTNV-3" target="WIyWlLk6GJQsqaUBKTNV-6" edge="1">
          <mxGeometry relative="1" as="geometry" />
        </mxCell>
        <mxCell id="WIyWlLk6GJQsqaUBKTNV-3" value="&lt;div style=&quot;color: rgb(204, 204, 204); background-color: rgb(31, 31, 31); font-family: Monaco, Consolas, &amp;quot;Courier New&amp;quot;, monospace, Consolas, &amp;quot;Courier New&amp;quot;, monospace; font-size: 11px; line-height: 15px; white-space: pre;&quot;&gt;&lt;span style=&quot;color: #4ec9b0;&quot;&gt;FileResolver&lt;/span&gt;::&lt;/div&gt;&lt;div style=&quot;color: rgb(204, 204, 204); background-color: rgb(31, 31, 31); font-family: Monaco, Consolas, &amp;quot;Courier New&amp;quot;, monospace, Consolas, &amp;quot;Courier New&amp;quot;, monospace; font-size: 11px; line-height: 15px; white-space: pre;&quot;&gt;&lt;span style=&quot;color: #dcdcaa;&quot;&gt;_Resolve&lt;/span&gt;&lt;/div&gt;" style="rounded=1;whiteSpace=wrap;html=1;fontSize=12;glass=0;strokeWidth=1;shadow=0;fillColor=default;" parent="WIyWlLk6GJQsqaUBKTNV-1" vertex="1">
          <mxGeometry x="250" y="40" width="120" height="40" as="geometry" />
        </mxCell>
        <mxCell id="Y0Sj8cKWIMxoQ4SRdCdw-1" style="edgeStyle=orthogonalEdgeStyle;rounded=0;orthogonalLoop=1;jettySize=auto;html=1;curved=1;" edge="1" parent="WIyWlLk6GJQsqaUBKTNV-1" source="WIyWlLk6GJQsqaUBKTNV-6" target="WIyWlLk6GJQsqaUBKTNV-7">
          <mxGeometry relative="1" as="geometry" />
        </mxCell>
        <mxCell id="Y0Sj8cKWIMxoQ4SRdCdw-52" value="Yes" style="edgeLabel;html=1;align=center;verticalAlign=middle;resizable=0;points=[];fontSize=22;" vertex="1" connectable="0" parent="Y0Sj8cKWIMxoQ4SRdCdw-1">
          <mxGeometry x="-0.1368" y="-4" relative="1" as="geometry">
            <mxPoint as="offset" />
          </mxGeometry>
        </mxCell>
        <mxCell id="Y0Sj8cKWIMxoQ4SRdCdw-3" style="edgeStyle=orthogonalEdgeStyle;rounded=0;orthogonalLoop=1;jettySize=auto;html=1;curved=1;" edge="1" parent="WIyWlLk6GJQsqaUBKTNV-1" source="WIyWlLk6GJQsqaUBKTNV-6" target="WIyWlLk6GJQsqaUBKTNV-10">
          <mxGeometry relative="1" as="geometry" />
        </mxCell>
        <mxCell id="WIyWlLk6GJQsqaUBKTNV-6" value="OS Linux?" style="rhombus;whiteSpace=wrap;html=1;shadow=0;fontFamily=Helvetica;fontSize=12;align=center;strokeWidth=1;spacing=6;spacingTop=-4;" parent="WIyWlLk6GJQsqaUBKTNV-1" vertex="1">
          <mxGeometry x="260" y="130" width="100" height="80" as="geometry" />
        </mxCell>
        <mxCell id="Y0Sj8cKWIMxoQ4SRdCdw-11" style="edgeStyle=orthogonalEdgeStyle;rounded=0;orthogonalLoop=1;jettySize=auto;html=1;curved=1;" edge="1" parent="WIyWlLk6GJQsqaUBKTNV-1" source="WIyWlLk6GJQsqaUBKTNV-7" target="Y0Sj8cKWIMxoQ4SRdCdw-10">
          <mxGeometry relative="1" as="geometry" />
        </mxCell>
        <mxCell id="WIyWlLk6GJQsqaUBKTNV-7" value="&lt;div style=&quot;color: rgb(204, 204, 204); background-color: rgb(31, 31, 31); font-family: Monaco, Consolas, &amp;quot;Courier New&amp;quot;, monospace, Consolas, &amp;quot;Courier New&amp;quot;, monospace; font-size: 11px; line-height: 15px; white-space: pre;&quot;&gt;&amp;nbsp;&lt;span style=&quot;color: #dcdcaa;&quot;&gt;_ConvertWindowsPath&lt;/span&gt;()&lt;/div&gt;" style="rounded=1;whiteSpace=wrap;html=1;fontSize=12;glass=0;strokeWidth=1;shadow=0;" parent="WIyWlLk6GJQsqaUBKTNV-1" vertex="1">
          <mxGeometry x="520" y="150" width="190" height="40" as="geometry" />
        </mxCell>
        <mxCell id="WIyWlLk6GJQsqaUBKTNV-9" value="" style="edgeStyle=orthogonalEdgeStyle;rounded=0;html=1;jettySize=auto;orthogonalLoop=1;fontSize=11;endArrow=block;endFill=0;endSize=8;strokeWidth=1;shadow=0;labelBackgroundColor=none;curved=1;" parent="WIyWlLk6GJQsqaUBKTNV-1" source="WIyWlLk6GJQsqaUBKTNV-10" target="WIyWlLk6GJQsqaUBKTNV-12" edge="1">
          <mxGeometry y="10" relative="1" as="geometry">
            <mxPoint as="offset" />
          </mxGeometry>
        </mxCell>
        <mxCell id="Y0Sj8cKWIMxoQ4SRdCdw-53" value="&lt;font style=&quot;font-size: 22px;&quot;&gt;Yes&lt;/font&gt;" style="edgeLabel;html=1;align=center;verticalAlign=middle;resizable=0;points=[];" vertex="1" connectable="0" parent="WIyWlLk6GJQsqaUBKTNV-9">
          <mxGeometry x="-0.6417" relative="1" as="geometry">
            <mxPoint as="offset" />
          </mxGeometry>
        </mxCell>
        <mxCell id="Y0Sj8cKWIMxoQ4SRdCdw-29" style="edgeStyle=orthogonalEdgeStyle;rounded=0;orthogonalLoop=1;jettySize=auto;html=1;curved=1;entryX=0;entryY=0.5;entryDx=0;entryDy=0;exitX=0.5;exitY=1;exitDx=0;exitDy=0;" edge="1" parent="WIyWlLk6GJQsqaUBKTNV-1" source="WIyWlLk6GJQsqaUBKTNV-10" target="Y0Sj8cKWIMxoQ4SRdCdw-10">
          <mxGeometry relative="1" as="geometry" />
        </mxCell>
        <mxCell id="WIyWlLk6GJQsqaUBKTNV-10" value="OS Windows?" style="rhombus;whiteSpace=wrap;html=1;shadow=0;fontFamily=Helvetica;fontSize=12;align=center;strokeWidth=1;spacing=6;spacingTop=-4;" parent="WIyWlLk6GJQsqaUBKTNV-1" vertex="1">
          <mxGeometry x="260" y="260" width="100" height="80" as="geometry" />
        </mxCell>
        <mxCell id="Y0Sj8cKWIMxoQ4SRdCdw-13" style="edgeStyle=orthogonalEdgeStyle;rounded=0;orthogonalLoop=1;jettySize=auto;html=1;entryX=0.5;entryY=0;entryDx=0;entryDy=0;curved=1;" edge="1" parent="WIyWlLk6GJQsqaUBKTNV-1" source="WIyWlLk6GJQsqaUBKTNV-12" target="Y0Sj8cKWIMxoQ4SRdCdw-10">
          <mxGeometry relative="1" as="geometry" />
        </mxCell>
        <mxCell id="WIyWlLk6GJQsqaUBKTNV-12" value="&lt;div style=&quot;color: rgb(204, 204, 204); background-color: rgb(31, 31, 31); font-family: Monaco, Consolas, &amp;quot;Courier New&amp;quot;, monospace, Consolas, &amp;quot;Courier New&amp;quot;, monospace; font-size: 11px; line-height: 15px; white-space: pre;&quot;&gt;&lt;span style=&quot;color: #dcdcaa;&quot;&gt;_ConvertLinuxPath&lt;/span&gt;&lt;/div&gt;" style="rounded=1;whiteSpace=wrap;html=1;fontSize=12;glass=0;strokeWidth=1;shadow=0;" parent="WIyWlLk6GJQsqaUBKTNV-1" vertex="1">
          <mxGeometry x="770" y="360" width="146" height="40" as="geometry" />
        </mxCell>
        <mxCell id="Y0Sj8cKWIMxoQ4SRdCdw-32" style="edgeStyle=orthogonalEdgeStyle;rounded=0;orthogonalLoop=1;jettySize=auto;html=1;curved=1;" edge="1" parent="WIyWlLk6GJQsqaUBKTNV-1" source="Y0Sj8cKWIMxoQ4SRdCdw-10" target="Y0Sj8cKWIMxoQ4SRdCdw-30">
          <mxGeometry relative="1" as="geometry" />
        </mxCell>
        <mxCell id="Y0Sj8cKWIMxoQ4SRdCdw-51" value="Yes" style="edgeLabel;html=1;align=center;verticalAlign=middle;resizable=0;points=[];fontSize=21;" vertex="1" connectable="0" parent="Y0Sj8cKWIMxoQ4SRdCdw-32">
          <mxGeometry x="-0.0139" y="3" relative="1" as="geometry">
            <mxPoint as="offset" />
          </mxGeometry>
        </mxCell>
        <mxCell id="Y0Sj8cKWIMxoQ4SRdCdw-49" style="edgeStyle=orthogonalEdgeStyle;rounded=0;orthogonalLoop=1;jettySize=auto;html=1;curved=1;exitX=0.5;exitY=1;exitDx=0;exitDy=0;" edge="1" parent="WIyWlLk6GJQsqaUBKTNV-1" source="Y0Sj8cKWIMxoQ4SRdCdw-10" target="Y0Sj8cKWIMxoQ4SRdCdw-48">
          <mxGeometry relative="1" as="geometry" />
        </mxCell>
        <mxCell id="Y0Sj8cKWIMxoQ4SRdCdw-50" value="No" style="edgeLabel;html=1;align=center;verticalAlign=middle;resizable=0;points=[];fontSize=26;" vertex="1" connectable="0" parent="Y0Sj8cKWIMxoQ4SRdCdw-49">
          <mxGeometry x="0.1042" y="6" relative="1" as="geometry">
            <mxPoint x="3" y="-4" as="offset" />
          </mxGeometry>
        </mxCell>
        <mxCell id="Y0Sj8cKWIMxoQ4SRdCdw-10" value="Is Lastest Path&amp;nbsp;&lt;div&gt;and&amp;nbsp;&lt;/div&gt;&lt;div&gt;Has ctx?&lt;/div&gt;" style="rhombus;whiteSpace=wrap;html=1;shadow=0;fontFamily=Helvetica;fontSize=12;align=center;strokeWidth=1;spacing=6;spacingTop=-4;" vertex="1" parent="WIyWlLk6GJQsqaUBKTNV-1">
          <mxGeometry x="420" y="470" width="186" height="145" as="geometry" />
        </mxCell>
        <mxCell id="Y0Sj8cKWIMxoQ4SRdCdw-24" style="edgeStyle=orthogonalEdgeStyle;rounded=0;orthogonalLoop=1;jettySize=auto;html=1;curved=1;" edge="1" parent="WIyWlLk6GJQsqaUBKTNV-1" source="Y0Sj8cKWIMxoQ4SRdCdw-17" target="Y0Sj8cKWIMxoQ4SRdCdw-23">
          <mxGeometry relative="1" as="geometry" />
        </mxCell>
        <mxCell id="Y0Sj8cKWIMxoQ4SRdCdw-59" value="No" style="edgeLabel;html=1;align=center;verticalAlign=middle;resizable=0;points=[];fontSize=22;" vertex="1" connectable="0" parent="Y0Sj8cKWIMxoQ4SRdCdw-24">
          <mxGeometry x="-0.0805" relative="1" as="geometry">
            <mxPoint as="offset" />
          </mxGeometry>
        </mxCell>
        <mxCell id="Y0Sj8cKWIMxoQ4SRdCdw-34" style="edgeStyle=orthogonalEdgeStyle;rounded=0;orthogonalLoop=1;jettySize=auto;html=1;entryX=0;entryY=0;entryDx=0;entryDy=0;curved=1;" edge="1" parent="WIyWlLk6GJQsqaUBKTNV-1" source="Y0Sj8cKWIMxoQ4SRdCdw-17" target="Y0Sj8cKWIMxoQ4SRdCdw-19">
          <mxGeometry relative="1" as="geometry" />
        </mxCell>
        <mxCell id="Y0Sj8cKWIMxoQ4SRdCdw-60" value="Yes" style="edgeLabel;html=1;align=center;verticalAlign=middle;resizable=0;points=[];fontSize=22;" vertex="1" connectable="0" parent="Y0Sj8cKWIMxoQ4SRdCdw-34">
          <mxGeometry x="-0.1498" y="-6" relative="1" as="geometry">
            <mxPoint as="offset" />
          </mxGeometry>
        </mxCell>
        <mxCell id="Y0Sj8cKWIMxoQ4SRdCdw-17" value="&lt;div style=&quot;color: rgb(204, 204, 204); background-color: rgb(31, 31, 31); font-family: Monaco, Consolas, &amp;quot;Courier New&amp;quot;, monospace, Consolas, &amp;quot;Courier New&amp;quot;, monospace; font-size: 11px; line-height: 15px; white-space: pre;&quot;&gt;&lt;span style=&quot;color: #dcdcaa;&quot;&gt;_IsAssetPrimPath?&lt;/span&gt;&lt;/div&gt;" style="rhombus;whiteSpace=wrap;html=1;shadow=0;fontFamily=Helvetica;fontSize=12;align=center;strokeWidth=1;spacing=6;spacingTop=-4;" vertex="1" parent="WIyWlLk6GJQsqaUBKTNV-1">
          <mxGeometry x="710" y="770" width="100" height="80" as="geometry" />
        </mxCell>
        <mxCell id="Y0Sj8cKWIMxoQ4SRdCdw-39" style="edgeStyle=orthogonalEdgeStyle;rounded=0;orthogonalLoop=1;jettySize=auto;html=1;strokeColor=none;curved=1;" edge="1" parent="WIyWlLk6GJQsqaUBKTNV-1" source="Y0Sj8cKWIMxoQ4SRdCdw-19" target="Y0Sj8cKWIMxoQ4SRdCdw-21">
          <mxGeometry relative="1" as="geometry" />
        </mxCell>
        <mxCell id="Y0Sj8cKWIMxoQ4SRdCdw-40" style="edgeStyle=orthogonalEdgeStyle;rounded=0;orthogonalLoop=1;jettySize=auto;html=1;entryX=0.5;entryY=0;entryDx=0;entryDy=0;curved=1;" edge="1" parent="WIyWlLk6GJQsqaUBKTNV-1" source="Y0Sj8cKWIMxoQ4SRdCdw-19" target="Y0Sj8cKWIMxoQ4SRdCdw-21">
          <mxGeometry relative="1" as="geometry" />
        </mxCell>
        <mxCell id="Y0Sj8cKWIMxoQ4SRdCdw-19" value="&lt;div style=&quot;color: rgb(204, 204, 204); background-color: rgb(31, 31, 31); font-family: Monaco, Consolas, &amp;quot;Courier New&amp;quot;, monospace, Consolas, &amp;quot;Courier New&amp;quot;, monospace; font-size: 11px; line-height: 15px; white-space: pre;&quot;&gt;&lt;div style=&quot;line-height: 15px;&quot;&gt;&lt;span style=&quot;color: #dcdcaa;&quot;&gt;_ListVersionFiles&lt;/span&gt;&lt;/div&gt;&lt;/div&gt;" style="rounded=1;whiteSpace=wrap;html=1;fontSize=12;glass=0;strokeWidth=1;shadow=0;" vertex="1" parent="WIyWlLk6GJQsqaUBKTNV-1">
          <mxGeometry x="920" y="850" width="146" height="40" as="geometry" />
        </mxCell>
        <mxCell id="Y0Sj8cKWIMxoQ4SRdCdw-55" style="edgeStyle=orthogonalEdgeStyle;rounded=0;orthogonalLoop=1;jettySize=auto;html=1;curved=1;" edge="1" parent="WIyWlLk6GJQsqaUBKTNV-1" source="Y0Sj8cKWIMxoQ4SRdCdw-21" target="Y0Sj8cKWIMxoQ4SRdCdw-54">
          <mxGeometry relative="1" as="geometry" />
        </mxCell>
        <mxCell id="Y0Sj8cKWIMxoQ4SRdCdw-21" value="&lt;div style=&quot;color: rgb(204, 204, 204); background-color: rgb(31, 31, 31); font-family: Monaco, Consolas, &amp;quot;Courier New&amp;quot;, monospace, Consolas, &amp;quot;Courier New&amp;quot;, monospace; font-size: 11px; line-height: 15px; white-space: pre;&quot;&gt;&lt;div style=&quot;line-height: 15px;&quot;&gt;&lt;div style=&quot;line-height: 15px;&quot;&gt;&lt;span style=&quot;color: #dcdcaa;&quot;&gt;_GetEarlyFile&lt;/span&gt;&lt;/div&gt;&lt;/div&gt;&lt;/div&gt;" style="rounded=1;whiteSpace=wrap;html=1;fontSize=12;glass=0;strokeWidth=1;shadow=0;" vertex="1" parent="WIyWlLk6GJQsqaUBKTNV-1">
          <mxGeometry x="920" y="965" width="146" height="40" as="geometry" />
        </mxCell>
        <mxCell id="Y0Sj8cKWIMxoQ4SRdCdw-35" style="edgeStyle=orthogonalEdgeStyle;rounded=0;orthogonalLoop=1;jettySize=auto;html=1;entryX=0;entryY=0.5;entryDx=0;entryDy=0;curved=1;" edge="1" parent="WIyWlLk6GJQsqaUBKTNV-1" source="Y0Sj8cKWIMxoQ4SRdCdw-23" target="Y0Sj8cKWIMxoQ4SRdCdw-19">
          <mxGeometry relative="1" as="geometry" />
        </mxCell>
        <mxCell id="Y0Sj8cKWIMxoQ4SRdCdw-61" value="Yes" style="edgeLabel;html=1;align=center;verticalAlign=middle;resizable=0;points=[];fontSize=22;" vertex="1" connectable="0" parent="Y0Sj8cKWIMxoQ4SRdCdw-35">
          <mxGeometry x="0.0221" y="2" relative="1" as="geometry">
            <mxPoint as="offset" />
          </mxGeometry>
        </mxCell>
        <mxCell id="Y0Sj8cKWIMxoQ4SRdCdw-62" style="edgeStyle=orthogonalEdgeStyle;rounded=0;orthogonalLoop=1;jettySize=auto;html=1;curved=1;" edge="1" parent="WIyWlLk6GJQsqaUBKTNV-1" source="Y0Sj8cKWIMxoQ4SRdCdw-23" target="Y0Sj8cKWIMxoQ4SRdCdw-56">
          <mxGeometry relative="1" as="geometry" />
        </mxCell>
        <mxCell id="Y0Sj8cKWIMxoQ4SRdCdw-63" value="No" style="edgeLabel;html=1;align=center;verticalAlign=middle;resizable=0;points=[];fontSize=22;" vertex="1" connectable="0" parent="Y0Sj8cKWIMxoQ4SRdCdw-62">
          <mxGeometry x="-0.4914" y="58" relative="1" as="geometry">
            <mxPoint as="offset" />
          </mxGeometry>
        </mxCell>
        <mxCell id="Y0Sj8cKWIMxoQ4SRdCdw-23" value="&lt;div style=&quot;color: rgb(204, 204, 204); background-color: rgb(31, 31, 31); font-family: Monaco, Consolas, &amp;quot;Courier New&amp;quot;, monospace, Consolas, &amp;quot;Courier New&amp;quot;, monospace; font-size: 11px; line-height: 15px; white-space: pre;&quot;&gt;&lt;span style=&quot;color: #dcdcaa;&quot;&gt;_IsAssetPrimPath?&lt;/span&gt;&lt;/div&gt;" style="rhombus;whiteSpace=wrap;html=1;shadow=0;fontFamily=Helvetica;fontSize=12;align=center;strokeWidth=1;spacing=6;spacingTop=-4;" vertex="1" parent="WIyWlLk6GJQsqaUBKTNV-1">
          <mxGeometry x="710" y="915" width="100" height="80" as="geometry" />
        </mxCell>
        <mxCell id="Y0Sj8cKWIMxoQ4SRdCdw-38" style="edgeStyle=orthogonalEdgeStyle;rounded=0;orthogonalLoop=1;jettySize=auto;html=1;curved=1;" edge="1" parent="WIyWlLk6GJQsqaUBKTNV-1" source="Y0Sj8cKWIMxoQ4SRdCdw-30" target="Y0Sj8cKWIMxoQ4SRdCdw-17">
          <mxGeometry relative="1" as="geometry" />
        </mxCell>
        <mxCell id="Y0Sj8cKWIMxoQ4SRdCdw-58" value="Yes" style="edgeLabel;html=1;align=center;verticalAlign=middle;resizable=0;points=[];fontSize=22;" vertex="1" connectable="0" parent="Y0Sj8cKWIMxoQ4SRdCdw-38">
          <mxGeometry x="0.0236" y="4" relative="1" as="geometry">
            <mxPoint as="offset" />
          </mxGeometry>
        </mxCell>
        <mxCell id="Y0Sj8cKWIMxoQ4SRdCdw-57" style="edgeStyle=orthogonalEdgeStyle;rounded=0;orthogonalLoop=1;jettySize=auto;html=1;curved=1;" edge="1" parent="WIyWlLk6GJQsqaUBKTNV-1" source="Y0Sj8cKWIMxoQ4SRdCdw-30" target="Y0Sj8cKWIMxoQ4SRdCdw-56">
          <mxGeometry relative="1" as="geometry" />
        </mxCell>
        <mxCell id="Y0Sj8cKWIMxoQ4SRdCdw-64" value="No" style="edgeLabel;html=1;align=center;verticalAlign=middle;resizable=0;points=[];fontSize=22;" vertex="1" connectable="0" parent="Y0Sj8cKWIMxoQ4SRdCdw-57">
          <mxGeometry x="-0.6053" y="-1" relative="1" as="geometry">
            <mxPoint as="offset" />
          </mxGeometry>
        </mxCell>
        <mxCell id="Y0Sj8cKWIMxoQ4SRdCdw-30" value="ctx is valid?" style="rhombus;whiteSpace=wrap;html=1;shadow=0;fontFamily=Helvetica;fontSize=12;align=center;strokeWidth=1;spacing=6;spacingTop=-4;" vertex="1" parent="WIyWlLk6GJQsqaUBKTNV-1">
          <mxGeometry x="463" y="770" width="100" height="80" as="geometry" />
        </mxCell>
        <mxCell id="Y0Sj8cKWIMxoQ4SRdCdw-45" style="edgeStyle=orthogonalEdgeStyle;rounded=0;orthogonalLoop=1;jettySize=auto;html=1;curved=1;" edge="1" parent="WIyWlLk6GJQsqaUBKTNV-1" source="Y0Sj8cKWIMxoQ4SRdCdw-41" target="Y0Sj8cKWIMxoQ4SRdCdw-44">
          <mxGeometry relative="1" as="geometry" />
        </mxCell>
        <mxCell id="Y0Sj8cKWIMxoQ4SRdCdw-41" value="&lt;div style=&quot;color: rgb(204, 204, 204); background-color: rgb(31, 31, 31); font-family: Monaco, Consolas, &amp;quot;Courier New&amp;quot;, monospace, Consolas, &amp;quot;Courier New&amp;quot;, monospace; font-size: 11px; line-height: 15px; white-space: pre;&quot;&gt;&lt;div style=&quot;line-height: 15px;&quot;&gt;&lt;span style=&quot;color: #4ec9b0;&quot;&gt;FileResolver&lt;/span&gt;::&lt;/div&gt;&lt;div style=&quot;line-height: 15px;&quot;&gt;&lt;span style=&quot;color: #dcdcaa;&quot;&gt;_CreateDefaultContextForAsset&lt;/span&gt;&lt;/div&gt;&lt;/div&gt;" style="rounded=1;whiteSpace=wrap;html=1;fontSize=12;glass=0;strokeWidth=1;shadow=0;fillColor=default;" vertex="1" parent="WIyWlLk6GJQsqaUBKTNV-1">
          <mxGeometry x="20" y="380" width="230" height="40" as="geometry" />
        </mxCell>
        <mxCell id="Y0Sj8cKWIMxoQ4SRdCdw-43" style="edgeStyle=orthogonalEdgeStyle;rounded=0;orthogonalLoop=1;jettySize=auto;html=1;curved=1;" edge="1" parent="WIyWlLk6GJQsqaUBKTNV-1" source="Y0Sj8cKWIMxoQ4SRdCdw-42" target="Y0Sj8cKWIMxoQ4SRdCdw-41">
          <mxGeometry relative="1" as="geometry" />
        </mxCell>
        <mxCell id="Y0Sj8cKWIMxoQ4SRdCdw-42" value="Houdini&amp;nbsp;&lt;div&gt;Resolver Context&lt;/div&gt;" style="shape=parallelogram;html=1;strokeWidth=2;perimeter=parallelogramPerimeter;whiteSpace=wrap;rounded=1;arcSize=12;size=0.23;fillColor=#ffe6cc;strokeColor=#d79b00;" vertex="1" parent="WIyWlLk6GJQsqaUBKTNV-1">
          <mxGeometry x="50" y="230" width="170" height="60" as="geometry" />
        </mxCell>
        <mxCell id="Y0Sj8cKWIMxoQ4SRdCdw-47" style="edgeStyle=orthogonalEdgeStyle;rounded=0;orthogonalLoop=1;jettySize=auto;html=1;entryX=0;entryY=0.5;entryDx=0;entryDy=0;curved=1;" edge="1" parent="WIyWlLk6GJQsqaUBKTNV-1" source="Y0Sj8cKWIMxoQ4SRdCdw-44" target="Y0Sj8cKWIMxoQ4SRdCdw-30">
          <mxGeometry relative="1" as="geometry" />
        </mxCell>
        <mxCell id="Y0Sj8cKWIMxoQ4SRdCdw-44" value="&lt;div style=&quot;color: rgb(204, 204, 204); background-color: rgb(31, 31, 31); font-family: Monaco, Consolas, &amp;quot;Courier New&amp;quot;, monospace, Consolas, &amp;quot;Courier New&amp;quot;, monospace; font-size: 11px; line-height: 15px; white-space: pre;&quot;&gt;&lt;span style=&quot;color: #dcdcaa;&quot;&gt;FileResolverContext&lt;/span&gt;&lt;span style=&quot;color: #dcdcaa;&quot;&gt;::&lt;/span&gt;&lt;/div&gt;&lt;div style=&quot;color: rgb(204, 204, 204); background-color: rgb(31, 31, 31); font-family: Monaco, Consolas, &amp;quot;Courier New&amp;quot;, monospace, Consolas, &amp;quot;Courier New&amp;quot;, monospace; font-size: 11px; line-height: 15px; white-space: pre;&quot;&gt;&lt;span style=&quot;color: #dcdcaa;&quot;&gt;FileResolverContext&lt;/span&gt;&lt;/div&gt;" style="shape=hexagon;perimeter=hexagonPerimeter2;whiteSpace=wrap;html=1;fixedSize=1;fillColor=#e1d5e7;strokeColor=#9673a6;" vertex="1" parent="WIyWlLk6GJQsqaUBKTNV-1">
          <mxGeometry x="37.5" y="500" width="195" height="60" as="geometry" />
        </mxCell>
        <mxCell id="Y0Sj8cKWIMxoQ4SRdCdw-48" value="RETURN" style="shape=card;whiteSpace=wrap;html=1;" vertex="1" parent="WIyWlLk6GJQsqaUBKTNV-1">
          <mxGeometry x="37.5" y="827" width="130" height="60" as="geometry" />
        </mxCell>
        <mxCell id="Y0Sj8cKWIMxoQ4SRdCdw-54" value="RETURN" style="shape=card;whiteSpace=wrap;html=1;" vertex="1" parent="WIyWlLk6GJQsqaUBKTNV-1">
          <mxGeometry x="928" y="1120" width="130" height="60" as="geometry" />
        </mxCell>
        <mxCell id="Y0Sj8cKWIMxoQ4SRdCdw-56" value="RETURN" style="shape=card;whiteSpace=wrap;html=1;" vertex="1" parent="WIyWlLk6GJQsqaUBKTNV-1">
          <mxGeometry x="448" y="1280" width="130" height="60" as="geometry" />
        </mxCell>
      </root>
    </mxGraphModel>
  </diagram>
</mxfile>
